<svg width="440" height="440" xmlns="http://www.w3.org/2000/svg" viewBox="0 0 440 440">
  <defs>
    <linearGradient id="gradient" x1="0%" y1="0%" x2="100%" y2="100%" gradientUnits="userSpaceOnUse">
      <stop offset="0%" stop-color="#2D79D6" />
      <stop offset="100%" stop-color="#102A4A" />
    </linearGradient>
    <style>
      .logo {
        stroke: url(#gradient);
      }
    </style>
  </defs>
  <mask id="circle_mask">
    <rect x="0" y="0" width="440" height="440" fill="white"/>
    <rect x="0" y="340" width="269" height="30" fill="black" />
  </mask>
  <g class="logo">
    <ellipse ry="150" rx="150" cy="220" cx="270" stroke-width="15" fill="none" mask="url(#circle_mask)" />
    <ellipse ry="120" rx="120" cy="220" cx="270" stroke-width="15" fill="none" />
    <ellipse ry="80" rx="80" cy="220" cx="270" stroke-width="15" fill="none" />
    <ellipse ry="10" rx="10" id="svg_19" cy="220" cx="270" stroke-width="15" fill="none" />
    <line y2="370" x2="270" y1="370" x1="20" stroke-width="15" fill="none" />
    <line y2="340" x2="270" y1="340" x1="25" stroke-width="15" fill="none" />
    <line y2="200" x2="120" y1="200" x1="60" stroke-width="15" fill="none" />
    <line y2="70" x2="270" y1="70" x1="140" stroke-width="15" fill="none" />
    <line y2="100" x2="178" y1="100" x1="100" stroke-width="15" fill="none" />
    <line y2="240" x2="120" y1="240" x1="45" stroke-width="15" fill="none" />
    <line y2="178" x2="270" y1="205" x1="270" stroke-width="15" fill="none" />
    <line y2="250" x2="300" y1="230" x1="280" stroke-width="15" fill="none" />
  </g>
</svg>