<svg id="Layer_35" enable-background="new 0 0 64 64" height="512" viewBox="0 0 64 64" width="512" xmlns="http://www.w3.org/2000/svg" xmlns:xlink="http://www.w3.org/1999/xlink"><linearGradient id="SVGID_1_" gradientUnits="userSpaceOnUse" x1="32" x2="32" y1="62.766" y2="1"><stop offset="0" stop-color="#9f2fff"/><stop offset="1" stop-color="#0bb1d3"/></linearGradient><path d="m3 51h2v2h-2zm0 6h-2v2h2zm2 2h2v-2h-2zm21-10c-8.271 0-15-6.729-15-15s6.729-15 15-15 15 6.729 15 15-6.729 15-15 15zm-5.657-7.929-2.791 2.791c2.036 1.747 4.615 2.871 7.447 3.088v-3.95h2v3.949c2.833-.217 5.411-1.341 7.447-3.088l-2.791-2.791 1.414-1.414 2.791 2.791c1.747-2.036 2.871-4.615 3.088-7.447h-3.948v-2h3.949c-.217-2.833-1.341-5.411-3.088-7.447l-2.791 2.791-1.414-1.414 2.791-2.791c-2.036-1.747-4.615-2.871-7.447-3.088v3.949h-2v-3.949c-2.833.217-5.411 1.341-7.447 3.088l2.791 2.791-1.414 1.414-2.791-2.791c-1.747 2.036-2.871 4.615-3.088 7.447h3.949v2h-3.949c.217 2.833 1.341 5.411 3.088 7.447l2.791-2.791zm2.657-7.071c0-1.302.839-2.402 2-2.816v-4.184h2v4.184c1.161.414 2 1.514 2 2.816 0 .462-.113.894-.301 1.285l2.008 2.008-1.414 1.414-2.008-2.008c-.391.188-.823.301-1.285.301-1.654 0-3-1.346-3-3zm2 0c0 .551.449 1 1 1s1-.449 1-1-.449-1-1-1-1 .449-1 1zm38-24c0 4.962-4.038 9-9 9h-8.006c3.238 4.312 5.006 9.56 5.006 15 0 6.561-2.544 12.536-6.692 17h5.692v-3.766l12.944 7.766-12.944 7.766v-3.766h-24-17v-2h17c12.682 0 23-10.318 23-23 0-5.524-1.988-10.828-5.584-15h-4.416v-3.959c-3.837-2.637-8.316-4.041-13-4.041-12.682 0-23 10.318-23 23 0 6.472 2.739 12.644 7.518 17h7c-6.23-3.122-10.518-9.57-10.518-17 0-10.477 8.523-19 19-19s19 8.523 19 19-8.523 19-19 19h-19v-2h.676c-4.267-4.602-6.676-10.67-6.676-17 0-13.785 11.215-25 25-25 4.635 0 9.091 1.255 13 3.643v-2.643c0-4.962 4.038-9 9-9h6c4.962 0 9 4.038 9 9zm-37 41c9.374 0 17-7.626 17-17s-7.626-17-17-17-17 7.626-17 17 7.626 17 17 17zm16.221 2c-1.916 1.638-4.078 2.996-6.428 4h16.207v2.234l7.056-4.234-7.056-4.234v2.234zm18.779-43c0-3.86-3.14-7-7-7h-6c-3.86 0-7 3.14-7 7v7h13c3.86 0 7-3.14 7-7zm-15-3h10v-2h-10zm0 4h10v-2h-10zm8 4h2v-2h-2zm-4 0h2v-2h-2zm-4 0h2v-2h-2z" fill="url(#SVGID_1_)"/></svg>